<?xml version="1.0" encoding="UTF-8"?><svg xmlns="http://www.w3.org/2000/svg" xmlns:xlink="http://www.w3.org/1999/xlink" fill-opacity="1" color-rendering="auto" color-interpolation="auto" text-rendering="auto" stroke="black" stroke-linecap="square" width="634" stroke-miterlimit="10" shape-rendering="auto" stroke-opacity="1" fill="black" stroke-dasharray="none" font-weight="normal" stroke-width="1" height="663" font-family="'Dialog'" font-style="normal" stroke-linejoin="miter" font-size="12px" stroke-dashoffset="0" image-rendering="auto">
  <!--Generated by ySVG 2.6-->
  <defs id="genericDefs"/>
  <g>
    <defs id="defs1">
      <clipPath clipPathUnits="userSpaceOnUse" id="clipPath1">
        <path d="M0 0 L634 0 L634 663 L0 663 L0 0 Z"/>
      </clipPath>
      <clipPath clipPathUnits="userSpaceOnUse" id="clipPath2">
        <path d="M457 258 L1091 258 L1091 921 L457 921 L457 258 Z"/>
      </clipPath>
    </defs>
    <g fill="white" text-rendering="geometricPrecision" shape-rendering="geometricPrecision" transform="translate(-457,-258)" stroke="white">
      <rect x="457" width="634" height="663" y="258" clip-path="url(#clipPath2)" stroke="none"/>
    </g>
    <g fill="white" text-rendering="geometricPrecision" shape-rendering="geometricPrecision" transform="matrix(1,0,0,1,-457,-258)" stroke="white">
      <circle r="15" clip-path="url(#clipPath2)" cx="605.3072" cy="288.1168" stroke="none"/>
    </g>
    <g text-rendering="geometricPrecision" stroke-miterlimit="1.45" shape-rendering="geometricPrecision" transform="matrix(1,0,0,1,-457,-258)" stroke-linecap="butt">
      <circle fill="none" r="15" clip-path="url(#clipPath2)" cx="605.3072" cy="288.1168"/>
      <text x="601.8752" xml:space="preserve" y="292.7728" clip-path="url(#clipPath2)" font-family="sans-serif" stroke="none">1</text>
    </g>
    <g fill="white" text-rendering="geometricPrecision" shape-rendering="geometricPrecision" transform="matrix(1,0,0,1,-457,-258)" stroke="white">
      <circle r="15" clip-path="url(#clipPath2)" cx="605.3072" cy="336.04" stroke="none"/>
    </g>
    <g text-rendering="geometricPrecision" stroke-miterlimit="1.45" shape-rendering="geometricPrecision" transform="matrix(1,0,0,1,-457,-258)" stroke-linecap="butt">
      <circle fill="none" r="15" clip-path="url(#clipPath2)" cx="605.3072" cy="336.04"/>
      <text x="601.8752" xml:space="preserve" y="340.696" clip-path="url(#clipPath2)" font-family="sans-serif" stroke="none">2</text>
    </g>
    <g fill="white" text-rendering="geometricPrecision" shape-rendering="geometricPrecision" transform="matrix(1,0,0,1,-457,-258)" stroke="white">
      <circle r="15" clip-path="url(#clipPath2)" cx="605.3072" cy="383.9632" stroke="none"/>
    </g>
    <g text-rendering="geometricPrecision" stroke-miterlimit="1.45" shape-rendering="geometricPrecision" transform="matrix(1,0,0,1,-457,-258)" stroke-linecap="butt">
      <circle fill="none" r="15" clip-path="url(#clipPath2)" cx="605.3072" cy="383.9632"/>
      <text x="601.8752" xml:space="preserve" y="388.6192" clip-path="url(#clipPath2)" font-family="sans-serif" stroke="none">3</text>
    </g>
    <g fill="white" text-rendering="geometricPrecision" shape-rendering="geometricPrecision" transform="matrix(1,0,0,1,-457,-258)" stroke="white">
      <circle r="15" clip-path="url(#clipPath2)" cx="605.3072" cy="601.3808" stroke="none"/>
    </g>
    <g text-rendering="geometricPrecision" stroke-miterlimit="1.45" shape-rendering="geometricPrecision" transform="matrix(1,0,0,1,-457,-258)" stroke-linecap="butt">
      <circle fill="none" r="15" clip-path="url(#clipPath2)" cx="605.3072" cy="601.3808"/>
      <text x="601.8752" xml:space="preserve" y="606.0368" clip-path="url(#clipPath2)" font-family="sans-serif" stroke="none">4</text>
    </g>
    <g fill="white" text-rendering="geometricPrecision" shape-rendering="geometricPrecision" transform="matrix(1,0,0,1,-457,-258)" stroke="white">
      <circle r="15" clip-path="url(#clipPath2)" cx="765.5296" cy="336.04" stroke="none"/>
    </g>
    <g text-rendering="geometricPrecision" stroke-miterlimit="1.45" shape-rendering="geometricPrecision" transform="matrix(1,0,0,1,-457,-258)" stroke-linecap="butt">
      <circle fill="none" r="15" clip-path="url(#clipPath2)" cx="765.5296" cy="336.04"/>
      <text x="762.0976" xml:space="preserve" y="340.696" clip-path="url(#clipPath2)" font-family="sans-serif" stroke="none">8</text>
    </g>
    <g fill="white" text-rendering="geometricPrecision" shape-rendering="geometricPrecision" transform="matrix(1,0,0,1,-457,-258)" stroke="white">
      <circle r="15" clip-path="url(#clipPath2)" cx="605.3072" cy="716.1552" stroke="none"/>
    </g>
    <g text-rendering="geometricPrecision" stroke-miterlimit="1.45" shape-rendering="geometricPrecision" transform="matrix(1,0,0,1,-457,-258)" stroke-linecap="butt">
      <circle fill="none" r="15" clip-path="url(#clipPath2)" cx="605.3072" cy="716.1552"/>
      <text x="601.8752" xml:space="preserve" y="720.8112" clip-path="url(#clipPath2)" font-family="sans-serif" stroke="none">5</text>
    </g>
    <g fill="white" text-rendering="geometricPrecision" shape-rendering="geometricPrecision" transform="matrix(1,0,0,1,-457,-258)" stroke="white">
      <circle r="15" clip-path="url(#clipPath2)" cx="765.5296" cy="288.1168" stroke="none"/>
    </g>
    <g text-rendering="geometricPrecision" stroke-miterlimit="1.45" shape-rendering="geometricPrecision" transform="matrix(1,0,0,1,-457,-258)" stroke-linecap="butt">
      <circle fill="none" r="15" clip-path="url(#clipPath2)" cx="765.5296" cy="288.1168"/>
      <text x="762.0976" xml:space="preserve" y="292.7728" clip-path="url(#clipPath2)" font-family="sans-serif" stroke="none">7</text>
    </g>
    <g fill="white" text-rendering="geometricPrecision" shape-rendering="geometricPrecision" transform="matrix(1,0,0,1,-457,-258)" stroke="white">
      <circle r="15" clip-path="url(#clipPath2)" cx="765.5296" cy="383.9632" stroke="none"/>
    </g>
    <g text-rendering="geometricPrecision" stroke-miterlimit="1.45" shape-rendering="geometricPrecision" transform="matrix(1,0,0,1,-457,-258)" stroke-linecap="butt">
      <circle fill="none" r="15" clip-path="url(#clipPath2)" cx="765.5296" cy="383.9632"/>
      <text x="762.0976" xml:space="preserve" y="388.6192" clip-path="url(#clipPath2)" font-family="sans-serif" stroke="none">9</text>
    </g>
    <g fill="white" text-rendering="geometricPrecision" shape-rendering="geometricPrecision" transform="matrix(1,0,0,1,-457,-258)" stroke="white">
      <circle r="15" clip-path="url(#clipPath2)" cx="605.3072" cy="765.6496" stroke="none"/>
    </g>
    <g text-rendering="geometricPrecision" stroke-miterlimit="1.45" shape-rendering="geometricPrecision" transform="matrix(1,0,0,1,-457,-258)" stroke-linecap="butt">
      <circle fill="none" r="15" clip-path="url(#clipPath2)" cx="605.3072" cy="765.6496"/>
      <text x="601.8752" xml:space="preserve" y="770.3056" clip-path="url(#clipPath2)" font-family="sans-serif" stroke="none">6</text>
    </g>
    <g fill="white" text-rendering="geometricPrecision" shape-rendering="geometricPrecision" transform="matrix(1,0,0,1,-457,-258)" stroke="white">
      <circle r="15" clip-path="url(#clipPath2)" cx="765.5296" cy="431.8864" stroke="none"/>
    </g>
    <g text-rendering="geometricPrecision" stroke-miterlimit="1.45" shape-rendering="geometricPrecision" transform="matrix(1,0,0,1,-457,-258)" stroke-linecap="butt">
      <circle fill="none" r="15" clip-path="url(#clipPath2)" cx="765.5296" cy="431.8864"/>
      <text x="758.6655" xml:space="preserve" y="436.5424" clip-path="url(#clipPath2)" font-family="sans-serif" stroke="none">10</text>
    </g>
    <g fill="white" text-rendering="geometricPrecision" shape-rendering="geometricPrecision" transform="matrix(1,0,0,1,-457,-258)" stroke="white">
      <circle r="15" clip-path="url(#clipPath2)" cx="765.5296" cy="491.8864" stroke="none"/>
    </g>
    <g text-rendering="geometricPrecision" stroke-miterlimit="1.45" shape-rendering="geometricPrecision" transform="matrix(1,0,0,1,-457,-258)" stroke-linecap="butt">
      <circle fill="none" r="15" clip-path="url(#clipPath2)" cx="765.5296" cy="491.8864"/>
      <text x="758.6655" xml:space="preserve" y="496.5424" clip-path="url(#clipPath2)" font-family="sans-serif" stroke="none">11</text>
    </g>
    <g fill="white" text-rendering="geometricPrecision" shape-rendering="geometricPrecision" transform="matrix(1,0,0,1,-457,-258)" stroke="white">
      <circle r="15" clip-path="url(#clipPath2)" cx="765.5296" cy="541.3808" stroke="none"/>
    </g>
    <g text-rendering="geometricPrecision" stroke-miterlimit="1.45" shape-rendering="geometricPrecision" transform="matrix(1,0,0,1,-457,-258)" stroke-linecap="butt">
      <circle fill="none" r="15" clip-path="url(#clipPath2)" cx="765.5296" cy="541.3808"/>
      <text x="758.6655" xml:space="preserve" y="546.0368" clip-path="url(#clipPath2)" font-family="sans-serif" stroke="none">12</text>
    </g>
    <g fill="white" text-rendering="geometricPrecision" shape-rendering="geometricPrecision" transform="matrix(1,0,0,1,-457,-258)" stroke="white">
      <circle r="15" clip-path="url(#clipPath2)" cx="765.5296" cy="710.8752" stroke="none"/>
    </g>
    <g text-rendering="geometricPrecision" stroke-miterlimit="1.45" shape-rendering="geometricPrecision" transform="matrix(1,0,0,1,-457,-258)" stroke-linecap="butt">
      <circle fill="none" r="15" clip-path="url(#clipPath2)" cx="765.5296" cy="710.8752"/>
      <text x="758.6655" xml:space="preserve" y="715.5312" clip-path="url(#clipPath2)" font-family="sans-serif" stroke="none">15</text>
    </g>
    <g fill="white" text-rendering="geometricPrecision" shape-rendering="geometricPrecision" transform="matrix(1,0,0,1,-457,-258)" stroke="white">
      <circle r="15" clip-path="url(#clipPath2)" cx="765.5296" cy="590.8752" stroke="none"/>
    </g>
    <g text-rendering="geometricPrecision" stroke-miterlimit="1.45" shape-rendering="geometricPrecision" transform="matrix(1,0,0,1,-457,-258)" stroke-linecap="butt">
      <circle fill="none" r="15" clip-path="url(#clipPath2)" cx="765.5296" cy="590.8752"/>
      <text x="758.6655" xml:space="preserve" y="595.5312" clip-path="url(#clipPath2)" font-family="sans-serif" stroke="none">13</text>
    </g>
    <g fill="white" text-rendering="geometricPrecision" shape-rendering="geometricPrecision" transform="matrix(1,0,0,1,-457,-258)" stroke="white">
      <circle r="15" clip-path="url(#clipPath2)" cx="765.5296" cy="650.8752" stroke="none"/>
    </g>
    <g text-rendering="geometricPrecision" stroke-miterlimit="1.45" shape-rendering="geometricPrecision" transform="matrix(1,0,0,1,-457,-258)" stroke-linecap="butt">
      <circle fill="none" r="15" clip-path="url(#clipPath2)" cx="765.5296" cy="650.8752"/>
      <text x="758.6655" xml:space="preserve" y="655.5312" clip-path="url(#clipPath2)" font-family="sans-serif" stroke="none">14</text>
    </g>
    <g fill="white" text-rendering="geometricPrecision" shape-rendering="geometricPrecision" transform="matrix(1,0,0,1,-457,-258)" stroke="white">
      <circle r="15" clip-path="url(#clipPath2)" cx="765.5296" cy="770.8752" stroke="none"/>
    </g>
    <g text-rendering="geometricPrecision" stroke-miterlimit="1.45" shape-rendering="geometricPrecision" transform="matrix(1,0,0,1,-457,-258)" stroke-linecap="butt">
      <circle fill="none" r="15" clip-path="url(#clipPath2)" cx="765.5296" cy="770.8752"/>
      <text x="758.6655" xml:space="preserve" y="775.5312" clip-path="url(#clipPath2)" font-family="sans-serif" stroke="none">16</text>
    </g>
    <g fill="white" text-rendering="geometricPrecision" shape-rendering="geometricPrecision" transform="matrix(1,0,0,1,-457,-258)" stroke="white">
      <circle r="15" clip-path="url(#clipPath2)" cx="765.5296" cy="830.8752" stroke="none"/>
    </g>
    <g text-rendering="geometricPrecision" stroke-miterlimit="1.45" shape-rendering="geometricPrecision" transform="matrix(1,0,0,1,-457,-258)" stroke-linecap="butt">
      <circle fill="none" r="15" clip-path="url(#clipPath2)" cx="765.5296" cy="830.8752"/>
      <text x="758.6655" xml:space="preserve" y="835.5312" clip-path="url(#clipPath2)" font-family="sans-serif" stroke="none">17</text>
    </g>
    <g fill="white" text-rendering="geometricPrecision" shape-rendering="geometricPrecision" transform="matrix(1,0,0,1,-457,-258)" stroke="white">
      <circle r="15" clip-path="url(#clipPath2)" cx="765.5296" cy="890.8752" stroke="none"/>
    </g>
    <g text-rendering="geometricPrecision" stroke-miterlimit="1.45" shape-rendering="geometricPrecision" transform="matrix(1,0,0,1,-457,-258)" stroke-linecap="butt">
      <circle fill="none" r="15" clip-path="url(#clipPath2)" cx="765.5296" cy="890.8752"/>
      <text x="758.6655" xml:space="preserve" y="895.5312" clip-path="url(#clipPath2)" font-family="sans-serif" stroke="none">18</text>
      <path fill="none" d="M605.3072 303.1168 L605.3072 313.04" clip-path="url(#clipPath2)"/>
      <path d="M605.3072 321.04 L610.3072 309.04 L605.3072 312.04 L600.3072 309.04 Z" clip-path="url(#clipPath2)" stroke="none"/>
      <path fill="none" d="M605.3072 351.04 L605.3072 360.9632" clip-path="url(#clipPath2)"/>
      <path d="M605.3072 368.9632 L610.3072 356.9632 L605.3072 359.9632 L600.3072 356.9632 Z" clip-path="url(#clipPath2)" stroke="none"/>
      <path fill="none" d="M611.5146 587.7255 L671.3701 456.0538 L672.8463 451.5429 L673.1367 447.1137 L672.2413 442.7663 L670.1602 438.5006 L617.6082 355.4742" clip-path="url(#clipPath2)"/>
      <path d="M613.3295 348.7144 L615.5226 361.5281 L618.1429 356.3191 L623.9723 356.1798 Z" clip-path="url(#clipPath2)" stroke="none"/>
      <path fill="none" d="M605.3072 616.3808 L605.3072 693.1552" clip-path="url(#clipPath2)"/>
      <path d="M605.3072 701.1552 L610.3072 689.1552 L605.3072 692.1552 L600.3072 689.1552 Z" clip-path="url(#clipPath2)" stroke="none"/>
      <path fill="none" d="M618.1797 376.2627 L745.7917 299.9242" clip-path="url(#clipPath2)"/>
      <path d="M752.657 295.8173 L739.7922 297.6868 L744.9335 300.4376 L744.9258 306.2685 Z" clip-path="url(#clipPath2)" stroke="none"/>
      <text x="642.1393" xml:space="preserve" y="309.454" clip-path="url(#clipPath2)" font-family="sans-serif" stroke="none">Прямой</text>
      <text x="647.7313" xml:space="preserve" y="325.7982" clip-path="url(#clipPath2)" font-family="sans-serif" stroke="none">вызов</text>
      <path fill="none" d="M765.5296 303.1168 L765.5296 319.7183 L765.5296 321.04" clip-path="url(#clipPath2)"/>
      <path d="M765.5296 321.04 L770.5296 309.04 L765.5296 312.04 L760.5296 309.04 Z" clip-path="url(#clipPath2)" stroke="none"/>
      <path fill="none" d="M765.5296 351.04 L765.5296 360.9632" clip-path="url(#clipPath2)"/>
      <path d="M765.5296 368.9632 L770.5296 356.9632 L765.5296 359.9632 L760.5296 356.9632 Z" clip-path="url(#clipPath2)" stroke="none"/>
      <path fill="none" d="M593.818 345.6835 L472.9867 447.1039 L596.4842 744.4092" clip-path="url(#clipPath2)"/>
      <path d="M599.553 751.7972 L599.5673 738.7972 L596.1006 743.4857 L590.3323 742.6332 Z" clip-path="url(#clipPath2)" stroke="none"/>
      <path fill="none" d="M765.5296 398.9632 L765.5296 408.8864" clip-path="url(#clipPath2)"/>
      <path d="M765.5296 416.8864 L770.5296 404.8864 L765.5296 407.8864 L760.5296 404.8864 Z" clip-path="url(#clipPath2)" stroke="none"/>
      <path fill="none" d="M755.2253 442.787 L621.1071 584.6666" clip-path="url(#clipPath2)"/>
      <path d="M615.6115 590.4802 L627.4884 585.1946 L621.794 583.9399 L620.2214 578.325 Z" clip-path="url(#clipPath2)" stroke="none"/>
      <path fill="none" d="M777.1927 393.3956 L820.476 428.4005 L780.5813 474.4954" clip-path="url(#clipPath2)"/>
      <path d="M775.3459 480.5445 L786.9796 474.743 L781.2357 473.7393 L779.4183 468.1988 Z" clip-path="url(#clipPath2)" stroke="none"/>
      <path fill="none" d="M765.5296 506.8864 L765.5296 518.3808" clip-path="url(#clipPath2)"/>
      <path d="M765.5296 526.3808 L770.5296 514.3808 L765.5296 517.3808 L760.5296 514.3808 Z" clip-path="url(#clipPath2)" stroke="none"/>
      <path fill="none" d="M777.6045 532.4815 L795.516 519.2805 L795.516 513.5141 L784.1838 505.3408" clip-path="url(#clipPath2)"/>
      <path d="M777.6954 500.661 L784.5032 511.7359 L784.9949 505.9258 L790.3529 503.6254 Z" clip-path="url(#clipPath2)" stroke="none"/>
      <path fill="none" d="M777.8423 702.3079 L1075.8361 494.9605 L784.6675 300.8737" clip-path="url(#clipPath2)"/>
      <path d="M778.0109 296.4366 L785.2227 307.2528 L785.4996 301.4284 L790.7691 298.9319 Z" clip-path="url(#clipPath2)" stroke="none"/>
      <text x="974.669" xml:space="preserve" y="491.9957" clip-path="url(#clipPath2)" font-family="sans-serif" stroke="none">Рекурсивный</text>
      <text x="995.7112" xml:space="preserve" y="508.3398" clip-path="url(#clipPath2)" font-family="sans-serif" stroke="none">вызов</text>
      <path fill="none" d="M765.5296 556.3808 L765.5296 567.8752" clip-path="url(#clipPath2)"/>
      <path d="M765.5296 575.8752 L770.5296 563.8752 L765.5296 566.8752 L760.5296 563.8752 Z" clip-path="url(#clipPath2)" stroke="none"/>
      <path fill="none" d="M750.5618 591.8566 L628.2579 599.876" clip-path="url(#clipPath2)"/>
      <path d="M620.2751 600.3994 L632.5765 604.6036 L629.2558 599.8105 L631.9222 594.625 Z" clip-path="url(#clipPath2)" stroke="none"/>
      <path fill="none" d="M779.4869 497.3811 L921.596 553.3264 L785.0331 638.6846" clip-path="url(#clipPath2)"/>
      <path d="M778.2493 642.9248 L791.0752 640.8043 L785.8812 638.1545 L785.7749 632.3245 Z" clip-path="url(#clipPath2)" stroke="none"/>
      <path fill="none" d="M765.5296 665.8752 L765.5296 687.8752" clip-path="url(#clipPath2)"/>
      <path d="M765.5296 695.8752 L770.5296 683.8752 L765.5296 686.8752 L760.5296 683.8752 Z" clip-path="url(#clipPath2)" stroke="none"/>
      <path fill="none" d="M758.0912 603.901 L695.676 713.2005 L747.7937 756.2315" clip-path="url(#clipPath2)"/>
      <path d="M753.9627 761.325 L747.8926 749.8292 L747.0226 755.5948 L741.5258 757.5404 Z" clip-path="url(#clipPath2)" stroke="none"/>
      <path fill="none" d="M761.1603 446.236 L675.196 728.5605 L744.7015 761.1187" clip-path="url(#clipPath2)"/>
      <path d="M751.946 764.5123 L743.2001 754.8941 L743.7959 760.6945 L738.9582 763.9498 Z" clip-path="url(#clipPath2)" stroke="none"/>
      <path fill="none" d="M759.1208 757.3132 L733.436 702.9605 L753.4642 670.4564" clip-path="url(#clipPath2)"/>
      <path d="M757.6608 663.6456 L747.109 671.239 L752.9396 671.3078 L755.6226 676.4848 Z" clip-path="url(#clipPath2)" stroke="none"/>
      <path fill="none" d="M765.5296 785.8752 L765.5296 807.8752" clip-path="url(#clipPath2)"/>
      <path d="M765.5296 815.8752 L770.5296 803.8752 L765.5296 806.8752 L760.5296 803.8752 Z" clip-path="url(#clipPath2)" stroke="none"/>
      <path fill="none" d="M753.9684 821.3181 L661.116 744.5605 L613.6601 622.8104" clip-path="url(#clipPath2)"/>
      <path d="M610.7548 615.3566 L610.4542 628.3531 L614.0233 623.7421 L619.7714 624.7215 Z" clip-path="url(#clipPath2)" stroke="none"/>
      <path fill="none" d="M756.7801 818.6913 L736.636 790.6405 L746.5463 783.8611" clip-path="url(#clipPath2)"/>
      <path d="M753.1492 779.3443 L740.4218 781.9928 L745.7209 784.4258 L746.0679 790.2464 Z" clip-path="url(#clipPath2)" stroke="none"/>
      <path fill="none" d="M778.0905 659.0743 L911.996 746.4805 L781.9085 874.728" clip-path="url(#clipPath2)"/>
      <path d="M776.2115 880.3444 L788.2673 875.4804 L782.6206 874.0259 L781.2467 868.3591 Z" clip-path="url(#clipPath2)" stroke="none"/>
      <path fill="none" d="M754.7224 880.4731 L654.076 783.6005 L643.836 761.8405 L610.6772 623.7451" clip-path="url(#clipPath2)"/>
      <path d="M608.8094 615.9662 L606.7493 628.8019 L610.9106 624.7175 L616.4729 626.4672 Z" clip-path="url(#clipPath2)" stroke="none"/>
      <path fill="none" d="M759.9105 876.9675 L720.636 779.7605 L742.9673 775.3407" clip-path="url(#clipPath2)"/>
      <path d="M750.8151 773.7875 L738.0726 771.2125 L741.9863 775.5349 L740.0142 781.0222 Z" clip-path="url(#clipPath2)" stroke="none"/>
    </g>
  </g>
</svg>
