<?xml version="1.0" encoding="UTF-8"?><svg xmlns="http://www.w3.org/2000/svg" xmlns:xlink="http://www.w3.org/1999/xlink" fill-opacity="1" color-rendering="auto" color-interpolation="auto" text-rendering="auto" stroke="black" stroke-linecap="square" width="722" stroke-miterlimit="10" shape-rendering="auto" stroke-opacity="1" fill="black" stroke-dasharray="none" font-weight="normal" stroke-width="1" height="612" font-family="'Dialog'" font-style="normal" stroke-linejoin="miter" font-size="12px" stroke-dashoffset="0" image-rendering="auto">
  <!--Generated by ySVG 2.6-->
  <defs id="genericDefs"/>
  <g>
    <defs id="defs1">
      <clipPath clipPathUnits="userSpaceOnUse" id="clipPath1">
        <path d="M0 0 L722 0 L722 612 L0 612 L0 0 Z"/>
      </clipPath>
      <clipPath clipPathUnits="userSpaceOnUse" id="clipPath2">
        <path d="M502 -15 L1224 -15 L1224 597 L502 597 L502 -15 Z"/>
      </clipPath>
    </defs>
    <g fill="white" text-rendering="geometricPrecision" shape-rendering="geometricPrecision" transform="translate(-502,15)" stroke="white">
      <rect x="502" width="722" height="612" y="-15" clip-path="url(#clipPath2)" stroke="none"/>
    </g>
    <g fill="white" text-rendering="geometricPrecision" shape-rendering="geometricPrecision" transform="matrix(1,0,0,1,-502,15)" stroke="white">
      <circle r="15" clip-path="url(#clipPath2)" cx="644" cy="108" stroke="none"/>
    </g>
    <g text-rendering="geometricPrecision" stroke-miterlimit="1.45" shape-rendering="geometricPrecision" transform="matrix(1,0,0,1,-502,15)" stroke-linecap="butt">
      <circle fill="none" r="15" clip-path="url(#clipPath2)" cx="644" cy="108"/>
      <text x="640.568" xml:space="preserve" y="112.656" clip-path="url(#clipPath2)" font-family="sans-serif" stroke="none">1</text>
    </g>
    <g fill="white" text-rendering="geometricPrecision" shape-rendering="geometricPrecision" transform="matrix(1,0,0,1,-502,15)" stroke="white">
      <circle r="15" clip-path="url(#clipPath2)" cx="644" cy="172.2" stroke="none"/>
    </g>
    <g text-rendering="geometricPrecision" stroke-miterlimit="1.45" shape-rendering="geometricPrecision" transform="matrix(1,0,0,1,-502,15)" stroke-linecap="butt">
      <circle fill="none" r="15" clip-path="url(#clipPath2)" cx="644" cy="172.2"/>
      <text x="640.568" xml:space="preserve" y="176.856" clip-path="url(#clipPath2)" font-family="sans-serif" stroke="none">2</text>
    </g>
    <g fill="white" text-rendering="geometricPrecision" shape-rendering="geometricPrecision" transform="matrix(1,0,0,1,-502,15)" stroke="white">
      <circle r="15" clip-path="url(#clipPath2)" cx="644" cy="232.2" stroke="none"/>
    </g>
    <g text-rendering="geometricPrecision" stroke-miterlimit="1.45" shape-rendering="geometricPrecision" transform="matrix(1,0,0,1,-502,15)" stroke-linecap="butt">
      <circle fill="none" r="15" clip-path="url(#clipPath2)" cx="644" cy="232.2"/>
      <text x="640.568" xml:space="preserve" y="236.856" clip-path="url(#clipPath2)" font-family="sans-serif" stroke="none">3</text>
    </g>
    <g fill="white" text-rendering="geometricPrecision" shape-rendering="geometricPrecision" transform="matrix(1,0,0,1,-502,15)" stroke="white">
      <circle r="15" clip-path="url(#clipPath2)" cx="644" cy="303.4" stroke="none"/>
    </g>
    <g text-rendering="geometricPrecision" stroke-miterlimit="1.45" shape-rendering="geometricPrecision" transform="matrix(1,0,0,1,-502,15)" stroke-linecap="butt">
      <circle fill="none" r="15" clip-path="url(#clipPath2)" cx="644" cy="303.4"/>
      <text x="640.568" xml:space="preserve" y="308.056" clip-path="url(#clipPath2)" font-family="sans-serif" stroke="none">4</text>
    </g>
    <g fill="white" text-rendering="geometricPrecision" shape-rendering="geometricPrecision" transform="matrix(1,0,0,1,-502,15)" stroke="white">
      <circle r="15" clip-path="url(#clipPath2)" cx="903.6336" cy="108" stroke="none"/>
    </g>
    <g text-rendering="geometricPrecision" stroke-miterlimit="1.45" shape-rendering="geometricPrecision" transform="matrix(1,0,0,1,-502,15)" stroke-linecap="butt">
      <circle fill="none" r="15" clip-path="url(#clipPath2)" cx="903.6336" cy="108"/>
      <text x="900.2016" xml:space="preserve" y="112.656" clip-path="url(#clipPath2)" font-family="sans-serif" stroke="none">7</text>
    </g>
    <g fill="white" text-rendering="geometricPrecision" shape-rendering="geometricPrecision" transform="matrix(1,0,0,1,-502,15)" stroke="white">
      <circle r="15" clip-path="url(#clipPath2)" cx="644" cy="363.4" stroke="none"/>
    </g>
    <g text-rendering="geometricPrecision" stroke-miterlimit="1.45" shape-rendering="geometricPrecision" transform="matrix(1,0,0,1,-502,15)" stroke-linecap="butt">
      <circle fill="none" r="15" clip-path="url(#clipPath2)" cx="644" cy="363.4"/>
      <text x="640.568" xml:space="preserve" y="368.056" clip-path="url(#clipPath2)" font-family="sans-serif" stroke="none">5</text>
    </g>
    <g fill="white" text-rendering="geometricPrecision" shape-rendering="geometricPrecision" transform="matrix(1,0,0,1,-502,15)" stroke="white">
      <circle r="15" clip-path="url(#clipPath2)" cx="644" cy="428.1664" stroke="none"/>
    </g>
    <g text-rendering="geometricPrecision" stroke-miterlimit="1.45" shape-rendering="geometricPrecision" transform="matrix(1,0,0,1,-502,15)" stroke-linecap="butt">
      <circle fill="none" r="15" clip-path="url(#clipPath2)" cx="644" cy="428.1664"/>
      <text x="640.568" xml:space="preserve" y="432.8224" clip-path="url(#clipPath2)" font-family="sans-serif" stroke="none">6</text>
    </g>
    <g fill="white" text-rendering="geometricPrecision" shape-rendering="geometricPrecision" transform="matrix(1,0,0,1,-502,15)" stroke="white">
      <circle r="15" clip-path="url(#clipPath2)" cx="883.1536" cy="240.52" stroke="none"/>
    </g>
    <g text-rendering="geometricPrecision" stroke-miterlimit="1.45" shape-rendering="geometricPrecision" transform="matrix(1,0,0,1,-502,15)" stroke-linecap="butt">
      <circle fill="none" r="15" clip-path="url(#clipPath2)" cx="883.1536" cy="240.52"/>
      <text x="879.7216" xml:space="preserve" y="245.176" clip-path="url(#clipPath2)" font-family="sans-serif" stroke="none">8</text>
    </g>
    <g fill="white" text-rendering="geometricPrecision" shape-rendering="geometricPrecision" transform="matrix(1,0,0,1,-502,15)" stroke="white">
      <circle r="15" clip-path="url(#clipPath2)" cx="1082.0336" cy="172.2" stroke="none"/>
    </g>
    <g text-rendering="geometricPrecision" stroke-miterlimit="1.45" shape-rendering="geometricPrecision" transform="matrix(1,0,0,1,-502,15)" stroke-linecap="butt">
      <circle fill="none" r="15" clip-path="url(#clipPath2)" cx="1082.0336" cy="172.2"/>
      <text x="1075.1696" xml:space="preserve" y="176.856" clip-path="url(#clipPath2)" font-family="sans-serif" stroke="none">11</text>
    </g>
    <g fill="white" text-rendering="geometricPrecision" shape-rendering="geometricPrecision" transform="matrix(1,0,0,1,-502,15)" stroke="white">
      <circle r="15" clip-path="url(#clipPath2)" cx="975.2672" cy="236.04" stroke="none"/>
    </g>
    <g text-rendering="geometricPrecision" stroke-miterlimit="1.45" shape-rendering="geometricPrecision" transform="matrix(1,0,0,1,-502,15)" stroke-linecap="butt">
      <circle fill="none" r="15" clip-path="url(#clipPath2)" cx="975.2672" cy="236.04"/>
      <text x="971.8352" xml:space="preserve" y="240.696" clip-path="url(#clipPath2)" font-family="sans-serif" stroke="none">9</text>
    </g>
    <g fill="white" text-rendering="geometricPrecision" shape-rendering="geometricPrecision" transform="matrix(1,0,0,1,-502,15)" stroke="white">
      <circle r="15" clip-path="url(#clipPath2)" cx="1010.2672" cy="172.2" stroke="none"/>
    </g>
    <g text-rendering="geometricPrecision" stroke-miterlimit="1.45" shape-rendering="geometricPrecision" transform="matrix(1,0,0,1,-502,15)" stroke-linecap="butt">
      <circle fill="none" r="15" clip-path="url(#clipPath2)" cx="1010.2672" cy="172.2"/>
      <text x="1003.4031" xml:space="preserve" y="176.856" clip-path="url(#clipPath2)" font-family="sans-serif" stroke="none">10</text>
    </g>
    <g fill="white" text-rendering="geometricPrecision" shape-rendering="geometricPrecision" transform="matrix(1,0,0,1,-502,15)" stroke="white">
      <circle r="15" clip-path="url(#clipPath2)" cx="1082.0336" cy="232.2" stroke="none"/>
    </g>
    <g text-rendering="geometricPrecision" stroke-miterlimit="1.45" shape-rendering="geometricPrecision" transform="matrix(1,0,0,1,-502,15)" stroke-linecap="butt">
      <circle fill="none" r="15" clip-path="url(#clipPath2)" cx="1082.0336" cy="232.2"/>
      <text x="1075.1696" xml:space="preserve" y="236.856" clip-path="url(#clipPath2)" font-family="sans-serif" stroke="none">12</text>
    </g>
    <g fill="white" text-rendering="geometricPrecision" shape-rendering="geometricPrecision" transform="matrix(1,0,0,1,-502,15)" stroke="white">
      <circle r="15" clip-path="url(#clipPath2)" cx="938.6736" cy="436.4864" stroke="none"/>
    </g>
    <g text-rendering="geometricPrecision" stroke-miterlimit="1.45" shape-rendering="geometricPrecision" transform="matrix(1,0,0,1,-502,15)" stroke-linecap="butt">
      <circle fill="none" r="15" clip-path="url(#clipPath2)" cx="938.6736" cy="436.4864"/>
      <text x="931.8096" xml:space="preserve" y="441.1424" clip-path="url(#clipPath2)" font-family="sans-serif" stroke="none">15</text>
    </g>
    <g fill="white" text-rendering="geometricPrecision" shape-rendering="geometricPrecision" transform="matrix(1,0,0,1,-502,15)" stroke="white">
      <circle r="15" clip-path="url(#clipPath2)" cx="1082.0336" cy="292.2" stroke="none"/>
    </g>
    <g text-rendering="geometricPrecision" stroke-miterlimit="1.45" shape-rendering="geometricPrecision" transform="matrix(1,0,0,1,-502,15)" stroke-linecap="butt">
      <circle fill="none" r="15" clip-path="url(#clipPath2)" cx="1082.0336" cy="292.2"/>
      <text x="1075.1696" xml:space="preserve" y="296.856" clip-path="url(#clipPath2)" font-family="sans-serif" stroke="none">13</text>
    </g>
    <g fill="white" text-rendering="geometricPrecision" shape-rendering="geometricPrecision" transform="matrix(1,0,0,1,-502,15)" stroke="white">
      <circle r="15" clip-path="url(#clipPath2)" cx="799.8736" cy="336.44" stroke="none"/>
    </g>
    <g text-rendering="geometricPrecision" stroke-miterlimit="1.45" shape-rendering="geometricPrecision" transform="matrix(1,0,0,1,-502,15)" stroke-linecap="butt">
      <circle fill="none" r="15" clip-path="url(#clipPath2)" cx="799.8736" cy="336.44"/>
      <text x="793.0096" xml:space="preserve" y="341.096" clip-path="url(#clipPath2)" font-family="sans-serif" stroke="none">14</text>
    </g>
    <g fill="white" text-rendering="geometricPrecision" shape-rendering="geometricPrecision" transform="matrix(1,0,0,1,-502,15)" stroke="white">
      <circle r="15" clip-path="url(#clipPath2)" cx="984.3104" cy="566.92" stroke="none"/>
    </g>
    <g text-rendering="geometricPrecision" stroke-miterlimit="1.45" shape-rendering="geometricPrecision" transform="matrix(1,0,0,1,-502,15)" stroke-linecap="butt">
      <circle fill="none" r="15" clip-path="url(#clipPath2)" cx="984.3104" cy="566.92"/>
      <text x="977.4464" xml:space="preserve" y="571.576" clip-path="url(#clipPath2)" font-family="sans-serif" stroke="none">16</text>
    </g>
    <g fill="white" text-rendering="geometricPrecision" shape-rendering="geometricPrecision" transform="matrix(1,0,0,1,-502,15)" stroke="white">
      <circle r="15" clip-path="url(#clipPath2)" cx="759.0736" cy="543.8" stroke="none"/>
    </g>
    <g text-rendering="geometricPrecision" stroke-miterlimit="1.45" shape-rendering="geometricPrecision" transform="matrix(1,0,0,1,-502,15)" stroke-linecap="butt">
      <circle fill="none" r="15" clip-path="url(#clipPath2)" cx="759.0736" cy="543.8"/>
      <text x="752.2095" xml:space="preserve" y="548.4561" clip-path="url(#clipPath2)" font-family="sans-serif" stroke="none">17</text>
    </g>
    <g fill="white" text-rendering="geometricPrecision" shape-rendering="geometricPrecision" transform="matrix(1,0,0,1,-502,15)" stroke="white">
      <circle r="15" clip-path="url(#clipPath2)" cx="759.0736" cy="418.84" stroke="none"/>
    </g>
    <g text-rendering="geometricPrecision" stroke-miterlimit="1.45" shape-rendering="geometricPrecision" transform="matrix(1,0,0,1,-502,15)" stroke-linecap="butt">
      <circle fill="none" r="15" clip-path="url(#clipPath2)" cx="759.0736" cy="418.84"/>
      <text x="752.2095" xml:space="preserve" y="423.496" clip-path="url(#clipPath2)" font-family="sans-serif" stroke="none">18</text>
      <path fill="none" d="M644 123 L644 149.2" clip-path="url(#clipPath2)"/>
      <path d="M644 157.2 L649 145.2 L644 148.2 L639 145.2 Z" clip-path="url(#clipPath2)" stroke="none"/>
      <text x="657.4039" xml:space="preserve" y="146.684" clip-path="url(#clipPath2)" font-family="sans-serif" stroke="none">forest</text>
      <path fill="none" d="M644 187.2 L644 209.2" clip-path="url(#clipPath2)"/>
      <path d="M644 217.2 L649 205.2 L644 208.2 L639 205.2 Z" clip-path="url(#clipPath2)" stroke="none"/>
      <text x="602.5879" xml:space="preserve" y="207.856" clip-path="url(#clipPath2)" font-family="sans-serif" stroke="none">tree</text>
      <path fill="none" d="M644 247.2 L644 280.4" clip-path="url(#clipPath2)"/>
      <path d="M644 288.4 L649 276.4 L644 279.4 L639 276.4 Z" clip-path="url(#clipPath2)" stroke="none"/>
      <text x="597.8419" xml:space="preserve" y="272.456" clip-path="url(#clipPath2)" font-family="sans-serif" stroke="none">result</text>
      <path fill="none" d="M657.5314 225.727 L882.8854 117.9253" clip-path="url(#clipPath2)"/>
      <path d="M890.1022 114.473 L877.1193 115.1409 L881.9833 118.3568 L881.4347 124.1619 Z" clip-path="url(#clipPath2)" stroke="none"/>
      <text x="739.5876" xml:space="preserve" y="172.7982" clip-path="url(#clipPath2)" font-family="sans-serif" stroke="none">root</text>
      <path fill="none" d="M659 108 L880.6336 108" clip-path="url(#clipPath2)"/>
      <path d="M888.6336 108 L876.6336 103 L879.6336 108 L876.6336 113 Z" clip-path="url(#clipPath2)" stroke="none"/>
      <text x="748.3766" xml:space="preserve" y="82.656" clip-path="url(#clipPath2)" font-family="sans-serif" stroke="none">tag, attrs</text>
      <path fill="none" d="M630.6837 239.1048 L517.1 298 L623.5554 352.8635" clip-path="url(#clipPath2)"/>
      <path d="M630.6666 356.5284 L622.2903 346.5866 L622.6665 352.4054 L617.7093 355.4756 Z" clip-path="url(#clipPath2)" stroke="none"/>
      <text x="538.4081" xml:space="preserve" y="249.436" clip-path="url(#clipPath2)" font-family="sans-serif" stroke="none">result</text>
      <path fill="none" d="M901.3427 122.824 L886.6664 217.7898" clip-path="url(#clipPath2)"/>
      <path d="M885.4445 225.696 L892.2186 214.6004 L886.8191 216.8016 L882.336 213.0731 Z" clip-path="url(#clipPath2)" stroke="none"/>
      <text x="875.9124" xml:space="preserve" y="215.004" clip-path="url(#clipPath2)" font-family="sans-serif" stroke="none">root</text>
      <path fill="none" d="M918.6336 108 L1082.0336 108 L1082.0336 149.2" clip-path="url(#clipPath2)"/>
      <path d="M1082.0336 157.2 L1087.0336 145.2 L1082.0336 148.2 L1077.0336 145.2 Z" clip-path="url(#clipPath2)" stroke="none"/>
      <text x="1049.0815" xml:space="preserve" y="128.256" clip-path="url(#clipPath2)" font-family="sans-serif" stroke="none">root</text>
      <path fill="none" d="M910.9573 121.0906 L964.0375 215.9678" clip-path="url(#clipPath2)"/>
      <path d="M967.9435 222.9494 L966.4481 210.0357 L963.5493 215.095 L957.721 214.9181 Z" clip-path="url(#clipPath2)" stroke="none"/>
      <text x="926.3636" xml:space="preserve" y="212.8197" clip-path="url(#clipPath2)" font-family="sans-serif" stroke="none">attrs</text>
      <path fill="none" d="M916.4843 115.7369 L990.5628 160.3367" clip-path="url(#clipPath2)"/>
      <path d="M997.4165 164.4631 L989.7149 153.99 L989.7061 159.821 L984.557 162.5571 Z" clip-path="url(#clipPath2)" stroke="none"/>
      <text x="972.333" xml:space="preserve" y="142.3479" clip-path="url(#clipPath2)" font-family="sans-serif" stroke="none">root</text>
      <path fill="none" d="M995.4645 174.6249 L666.6974 228.4818" clip-path="url(#clipPath2)"/>
      <path d="M658.8027 229.7751 L671.4531 232.7694 L667.6843 228.3201 L669.8365 222.9009 Z" clip-path="url(#clipPath2)" stroke="none"/>
      <text x="759.3104" xml:space="preserve" y="231.4513" clip-path="url(#clipPath2)" font-family="sans-serif" stroke="none">root</text>
      <path fill="none" d="M1082.0336 187.2 L1082.0336 209.2" clip-path="url(#clipPath2)"/>
      <path d="M1082.0336 217.2 L1087.0336 205.2 L1082.0336 208.2 L1077.0336 205.2 Z" clip-path="url(#clipPath2)" stroke="none"/>
      <text x="1041.8575" xml:space="preserve" y="206.856" clip-path="url(#clipPath2)" font-family="sans-serif" stroke="none">attr</text>
      <path fill="none" d="M918.4131 105.4378 L1145.9 66 L1090.2837 210.7306" clip-path="url(#clipPath2)"/>
      <path d="M1087.4142 218.1983 L1096.3857 208.7902 L1090.6425 209.7971 L1087.0511 205.2033 Z" clip-path="url(#clipPath2)" stroke="none"/>
      <text x="1094.3163" xml:space="preserve" y="102.3162" clip-path="url(#clipPath2)" font-family="sans-serif" stroke="none">attrs</text>
      <path fill="none" d="M905.2246 122.9154 L936.234 413.6161" clip-path="url(#clipPath2)"/>
      <path d="M937.0826 421.571 L940.7815 409.1084 L936.1279 412.6218 L930.838 410.1691 Z" clip-path="url(#clipPath2)" stroke="none"/>
      <text x="873.4784" xml:space="preserve" y="353.1562" clip-path="url(#clipPath2)" font-family="sans-serif" stroke="none">tag, attrs</text>
      <path fill="none" d="M1010.2672 187.2 L1010.2672 266.32 L947.593 415.2863" clip-path="url(#clipPath2)"/>
      <path d="M944.4906 422.6602 L953.7529 413.5384 L947.9808 414.3646 L944.5355 409.6603 Z" clip-path="url(#clipPath2)" stroke="none"/>
      <text x="948.5231" xml:space="preserve" y="340.7621" clip-path="url(#clipPath2)" font-family="sans-serif" stroke="none">root</text>
      <path fill="none" d="M953.5962 434.9643 L1208.14 409 L1164.62 0.08 L924.8881 99.2111" clip-path="url(#clipPath2)"/>
      <path d="M917.4952 102.2681 L930.4952 102.3031 L925.8123 98.829 L926.674 93.062 Z" clip-path="url(#clipPath2)" stroke="none"/>
      <text x="1116.5015" xml:space="preserve" y="437.1561" clip-path="url(#clipPath2)" font-family="sans-serif" stroke="none">child, tag, attrs</text>
      <path fill="none" d="M914.0692 118.7749 L1066.0323 275.6785" clip-path="url(#clipPath2)"/>
      <path d="M1071.598 281.4251 L1066.8411 269.3267 L1065.3367 274.9602 L1059.6578 276.2838 Z" clip-path="url(#clipPath2)" stroke="none"/>
      <text x="1027.3798" xml:space="preserve" y="260.0273" clip-path="url(#clipPath2)" font-family="sans-serif" stroke="none">root</text>
      <path fill="none" d="M1067.1724 290.1644 L666.7872 235.3213" clip-path="url(#clipPath2)"/>
      <path d="M658.8613 234.2356 L670.0717 240.8179 L667.778 235.457 L671.4288 230.9104 Z" clip-path="url(#clipPath2)" stroke="none"/>
      <text x="739.1609" xml:space="preserve" y="269.1424" clip-path="url(#clipPath2)" font-family="sans-serif" stroke="none">root</text>
      <path fill="none" d="M1071.4612 302.8407 L954.8846 420.1707" clip-path="url(#clipPath2)"/>
      <path d="M949.246 425.8457 L961.2508 420.8573 L955.5894 419.4613 L954.157 413.809 Z" clip-path="url(#clipPath2)" stroke="none"/>
      <text x="1027.8823" xml:space="preserve" y="381.94" clip-path="url(#clipPath2)" font-family="sans-serif" stroke="none">root</text>
      <path fill="none" d="M897.4304 121.6572 L809.3853 315.4989" clip-path="url(#clipPath2)"/>
      <path d="M806.0768 322.7828 L815.5919 313.9248 L809.7988 314.5884 L806.4871 309.7892 Z" clip-path="url(#clipPath2)" stroke="none"/>
      <text x="829.4519" xml:space="preserve" y="301.3647" clip-path="url(#clipPath2)" font-family="sans-serif" stroke="none">root</text>
      <path fill="none" d="M812.0421 345.2109 L920.0153 423.0376" clip-path="url(#clipPath2)"/>
      <path d="M926.5052 427.7154 L919.694 416.6425 L919.2041 422.4529 L913.8468 424.7549 Z" clip-path="url(#clipPath2)" stroke="none"/>
      <text x="817.5534" xml:space="preserve" y="391.5319" clip-path="url(#clipPath2)" font-family="sans-serif" stroke="none">child</text>
      <path fill="none" d="M943.6274 450.6448 L976.7145 545.2105" clip-path="url(#clipPath2)"/>
      <path d="M979.3566 552.7617 L980.113 539.7837 L976.3843 544.2667 L970.6741 543.0862 Z" clip-path="url(#clipPath2)" stroke="none"/>
      <text x="976.3245" xml:space="preserve" y="503.6519" clip-path="url(#clipPath2)" font-family="sans-serif" stroke="none">result</text>
      <path fill="none" d="M925.7971 444.1803 L778.8176 532.0027" clip-path="url(#clipPath2)"/>
      <path d="M771.9501 536.1061 L784.8159 534.2432 L779.676 531.4897 L779.6866 525.6588 Z" clip-path="url(#clipPath2)" stroke="none"/>
      <text x="795.6097" xml:space="preserve" y="500.5191" clip-path="url(#clipPath2)" font-family="sans-serif" stroke="none">result</text>
      <path fill="none" d="M753.8771 529.7289 L651.9679 253.7757" clip-path="url(#clipPath2)"/>
      <path d="M649.1965 246.2711 L648.6632 259.2602 L652.3143 254.7138 L658.044 255.7959 Z" clip-path="url(#clipPath2)" stroke="none"/>
      <text x="710.2756" xml:space="preserve" y="510.2134" clip-path="url(#clipPath2)" font-family="sans-serif" stroke="none">result</text>
      <path fill="none" d="M773.0759 538.4209 L868.3 501.84 L921.8201 452.1376" clip-path="url(#clipPath2)"/>
      <path d="M927.6822 446.6937 L915.4866 451.1958 L921.0873 452.8181 L922.2916 458.5234 Z" clip-path="url(#clipPath2)" stroke="none"/>
      <text x="823.2668" xml:space="preserve" y="537.4178" clip-path="url(#clipPath2)" font-family="sans-serif" stroke="none">result</text>
      <path fill="none" d="M751.2013 406.0718 L656.0709 251.7779" clip-path="url(#clipPath2)"/>
      <path d="M651.8723 244.9682 L653.9141 257.8069 L656.5957 252.6291 L662.4262 252.5587 Z" clip-path="url(#clipPath2)" stroke="none"/>
      <text x="726.109" xml:space="preserve" y="354.9653" clip-path="url(#clipPath2)" font-family="sans-serif" stroke="none">nil</text>
      <path fill="none" d="M774.0017 420.3067 L915.7838 434.2374" clip-path="url(#clipPath2)"/>
      <path d="M923.7455 435.0197 L912.2919 428.8702 L914.7886 434.1396 L911.3141 438.8223 Z" clip-path="url(#clipPath2)" stroke="none"/>
      <text x="870.9564" xml:space="preserve" y="417.6757" clip-path="url(#clipPath2)" font-family="sans-serif" stroke="none">nil</text>
    </g>
  </g>
</svg>
